<svg xmlns="http://www.w3.org/2000/svg" viewBox="0 0 22 23">
  <g clip-path="url(#clip0_10_280)">
    <rect y="0.666626" width="22" height="22" rx="6" fill="none"/>
    <path fill-rule="evenodd" clip-rule="evenodd" d="M12.4 1.66663H9.6C7.90334 1.66663 6.69099 1.6674 5.74064 1.74505C4.80197 1.82174 4.20731 1.96841 3.73005 2.21159C2.78924 2.69096 2.02433 3.45586 1.54497 4.39667C1.30179 4.87394 1.15512 5.4686 1.07842 6.40727C1.00078 7.35762 1 8.56997 1 10.2666V13.0666C1 14.7633 1.00078 15.9756 1.07842 16.926C1.15512 17.8647 1.30179 18.4593 1.54497 18.9366C2.02433 19.8774 2.78924 20.6423 3.73005 21.1217C4.20731 21.3648 4.80197 21.5115 5.74064 21.5882C6.69099 21.6658 7.90334 21.6666 9.6 21.6666H12.4C14.0967 21.6666 15.309 21.6658 16.2594 21.5882C17.198 21.5115 17.7927 21.3648 18.27 21.1217C19.2108 20.6423 19.9757 19.8774 20.455 18.9366C20.6982 18.4593 20.8449 17.8647 20.9216 16.926C20.9992 15.9756 21 14.7633 21 13.0666V10.2666C21 8.56997 20.9992 7.35762 20.9216 6.40727C20.8449 5.4686 20.6982 4.87394 20.455 4.39667C19.9757 3.45586 19.2108 2.69096 18.27 2.21159C17.7927 1.96841 17.198 1.82174 16.2594 1.74505C15.309 1.6674 14.0967 1.66663 12.4 1.66663ZM0.653961 3.94268C0 5.22615 0 6.90631 0 10.2666V13.0666C0 16.4269 0 18.1071 0.653961 19.3906C1.2292 20.5195 2.14708 21.4374 3.27606 22.0127C4.55953 22.6666 6.23969 22.6666 9.6 22.6666H12.4C15.7603 22.6666 17.4405 22.6666 18.7239 22.0127C19.8529 21.4374 20.7708 20.5195 21.346 19.3906C22 18.1071 22 16.4269 22 13.0666V10.2666C22 6.90631 22 5.22615 21.346 3.94268C20.7708 2.81371 19.8529 1.89583 18.7239 1.32059C17.4405 0.666626 15.7603 0.666626 12.4 0.666626H9.6C6.23969 0.666626 4.55953 0.666626 3.27606 1.32059C2.14708 1.89583 1.2292 2.81371 0.653961 3.94268Z" fill="black" fill-opacity="0.2"/>
  </g>
  <defs>
    <clipPath id="clip0_10_280">
      <rect y="0.666626" width="22" height="22" rx="6" fill="none"/>
    </clipPath>
  </defs>
</svg>